<?xml version="1.0" standalone="no"?><svg xmlns="http://www.w3.org/2000/svg" viewBox="0 0 1440 320"><path fill="#000000" fill-opacity="1" d="M0,192L17.1,192C34.3,192,69,192,103,192C137.1,192,171,192,206,181.3C240,171,274,149,309,149.3C342.9,149,377,171,411,165.3C445.7,160,480,128,514,128C548.6,128,583,160,617,197.3C651.4,235,686,277,720,250.7C754.3,224,789,128,823,112C857.1,96,891,160,926,170.7C960,181,994,139,1029,128C1062.9,117,1097,139,1131,128C1165.7,117,1200,75,1234,96C1268.6,117,1303,203,1337,218.7C1371.4,235,1406,181,1423,154.7L1440,128L1440,0L1422.9,0C1405.7,0,1371,0,1337,0C1302.9,0,1269,0,1234,0C1200,0,1166,0,1131,0C1097.1,0,1063,0,1029,0C994.3,0,960,0,926,0C891.4,0,857,0,823,0C788.6,0,754,0,720,0C685.7,0,651,0,617,0C582.9,0,549,0,514,0C480,0,446,0,411,0C377.1,0,343,0,309,0C274.3,0,240,0,206,0C171.4,0,137,0,103,0C68.6,0,34,0,17,0L0,0Z"></path></svg>