<?xml version="1.0" standalone="no"?><svg xmlns="http://www.w3.org/2000/svg" viewBox="0 0 1440 320"><path fill="#000000" fill-opacity="1" d="M0,224L17.1,229.3C34.3,235,69,245,103,213.3C137.1,181,171,107,206,96C240,85,274,139,309,165.3C342.9,192,377,192,411,160C445.7,128,480,64,514,74.7C548.6,85,583,171,617,208C651.4,245,686,235,720,240C754.3,245,789,267,823,256C857.1,245,891,203,926,197.3C960,192,994,224,1029,208C1062.9,192,1097,128,1131,117.3C1165.7,107,1200,149,1234,165.3C1268.6,181,1303,171,1337,154.7C1371.4,139,1406,117,1423,106.7L1440,96L1440,0L1422.9,0C1405.7,0,1371,0,1337,0C1302.9,0,1269,0,1234,0C1200,0,1166,0,1131,0C1097.1,0,1063,0,1029,0C994.3,0,960,0,926,0C891.4,0,857,0,823,0C788.6,0,754,0,720,0C685.7,0,651,0,617,0C582.9,0,549,0,514,0C480,0,446,0,411,0C377.1,0,343,0,309,0C274.3,0,240,0,206,0C171.4,0,137,0,103,0C68.6,0,34,0,17,0L0,0Z"></path></svg>